<svg width="24" height="24" xmlns="http://www.w3.org/2000/svg">

 <g>
  <title>background</title>
  <rect fill="none" id="canvas_background" height="26" width="26" y="-1" x="-1"/>
 </g>
 <g>
  <title>Layer 1</title>
  <g id="svg_1" fill-rule="evenodd" fill="none">
   <path id="svg_2" d="m0,-0.07972l24,0l0,24l-24,0l0,-24z"/>
   <path id="svg_3" d="m16.084,13.90228c-0.248,-0.124 -1.465,-0.723 -1.692,-0.806c-0.227,-0.082 -0.392,-0.124 -0.557,0.124c-0.165,0.248 -0.639,0.806 -0.783,0.97c-0.145,0.166 -0.29,0.187 -0.537,0.063c-0.247,-0.124 -1.045,-0.386 -1.99,-1.23c-0.737,-0.655 -1.233,-1.466 -1.378,-1.714c-0.144,-0.248 -0.015,-0.382 0.109,-0.505c0.111,-0.111 0.247,-0.29 0.371,-0.434c0.124,-0.144 0.165,-0.248 0.248,-0.413c0.082,-0.165 0.04,-0.31 -0.021,-0.434c-0.062,-0.124 -0.557,-1.342 -0.763,-1.838c-0.201,-0.482 -0.405,-0.417 -0.557,-0.425c-0.144,-0.007 -0.31,-0.008 -0.475,-0.008c-0.165,0 -0.433,0.061 -0.66,0.31c-0.227,0.247 -0.866,0.846 -0.866,2.065c0,1.218 0.887,2.395 1.01,2.56c0.124,0.166 1.746,2.666 4.23,3.738c0.59,0.256 1.051,0.408 1.41,0.522c0.594,0.188 1.133,0.162 1.56,0.098c0.476,-0.071 1.465,-0.599 1.671,-1.177c0.206,-0.578 0.206,-1.074 0.144,-1.177c-0.061,-0.104 -0.226,-0.165 -0.474,-0.29m-4.517,6.168l-0.003,0c-1.478,0 -2.927,-0.398 -4.192,-1.148l-0.3,-0.178l-3.117,0.817l0.832,-3.039l-0.196,-0.311c-0.824,-1.311 -1.26,-2.826 -1.259,-4.382c0.002,-4.54 3.696,-8.235 8.238,-8.235c2.2,0.001 4.267,0.859 5.822,2.415c1.555,1.557 2.41,3.626 2.41,5.826c-0.002,4.54 -3.696,8.235 -8.235,8.235m7.008,-15.243c-1.87,-1.873 -4.358,-2.906 -7.008,-2.906c-5.461,0 -9.907,4.444 -9.908,9.907c0,1.746 0.456,3.45 1.323,4.953l-1.406,5.134l5.252,-1.378c1.447,0.79 3.077,1.206 4.735,1.206l0.004,0c5.46,0 9.905,-4.444 9.908,-9.907c0,-2.647 -1.029,-5.137 -2.9,-7.01" fill="#FFF"/>
  </g>
 </g>
</svg>